<svg width="19" height="19" viewBox="0 0 19 19" fill="none" xmlns="http://www.w3.org/2000/svg">
<path d="M7.125 7.125V4.90833C7.125 4.02167 7.125 3.57833 7.29758 3.2395C7.44958 2.94104 7.69104 2.69958 7.9895 2.54758C8.32833 2.375 8.77167 2.375 9.65833 2.375H14.0917C14.9783 2.375 15.4217 2.375 15.7605 2.54758C16.0584 2.69938 16.3006 2.94159 16.4524 3.2395C16.625 3.57833 16.625 4.02167 16.625 4.90833V9.34167C16.625 10.2283 16.625 10.6717 16.4524 11.0105C16.3005 11.3083 16.0583 11.5505 15.7605 11.7024C15.4217 11.875 14.9783 11.875 14.094 11.875H11.875M7.125 7.125H4.90833C4.02167 7.125 3.57833 7.125 3.2395 7.29758C2.94156 7.44934 2.69934 7.69156 2.54758 7.9895C2.375 8.32833 2.375 8.77167 2.375 9.65833V14.0917C2.375 14.9783 2.375 15.4217 2.54758 15.7605C2.69938 16.0584 2.94159 16.3006 3.2395 16.4524C3.57754 16.625 4.02088 16.625 4.90596 16.625H9.34483C10.2291 16.625 10.6717 16.625 11.0105 16.4524C11.3084 16.3006 11.5506 16.0584 11.7024 15.7605C11.875 15.4217 11.875 14.9791 11.875 14.094V11.875M7.125 7.125H9.34167C10.2283 7.125 10.6717 7.125 11.0105 7.29758C11.3084 7.44938 11.5506 7.69159 11.7024 7.9895C11.875 8.32754 11.875 8.77087 11.875 9.65596V11.875" stroke="#A66333" stroke-width="2" stroke-linecap="round" stroke-linejoin="round"/>
</svg>
